<svg 
 xmlns="http://www.w3.org/2000/svg"
 xmlns:xlink="http://www.w3.org/1999/xlink"
 width="21px" height="20px">
<path fill-rule="evenodd"  fill="rgb(41, 40, 45)"
 d="M19.778,4.589 C19.097,2.170 17.096,0.726 15.605,0.218 C13.902,-0.377 11.858,0.218 10.027,1.829 C8.196,0.260 6.152,-0.292 4.449,0.260 C2.959,0.811 0.957,2.254 0.276,4.631 C-0.192,6.201 -0.235,8.748 2.235,11.846 C3.342,13.246 5.045,15.241 6.450,16.811 C9.133,19.825 9.559,19.994 9.942,19.994 C9.985,19.994 9.985,19.994 10.027,19.994 L10.070,19.994 L10.112,19.994 C10.496,19.994 10.879,19.825 13.561,16.769 C14.967,15.156 16.670,13.161 17.777,11.803 C20.247,8.706 20.247,6.159 19.778,4.589 ZM16.500,10.784 C14.541,13.246 11.177,17.108 10.027,18.170 C8.877,17.108 5.513,13.246 3.555,10.784 C1.937,8.790 1.341,6.838 1.852,5.097 C2.362,3.315 3.853,2.254 4.960,1.873 C6.195,1.405 7.856,2.042 9.388,3.528 C9.686,3.824 10.112,3.867 10.453,3.654 C10.538,3.612 10.623,3.570 10.666,3.484 C12.199,2.042 13.860,1.405 15.094,1.829 C16.201,2.254 17.692,3.315 18.203,5.097 C18.714,6.795 18.118,8.790 16.500,10.784 Z"/>
</svg>                                                                  
                                                                                                    
                                                                                                    
                                                                                                    
                                                                                                    
                                                                                                    
                                                                                                    
                                                                                                    
                                                                                                    
                                                                                                    
                                                                                                    
                                                                                                    
                                                                                                    
                                                                                                    
                           
<?xpacket end="w"?></metadata>
<defs>
    <style>
      .cls-1 {
        fill: #29282d;
        fill-rule: evenodd;
      }
    </style>
  </defs>
  <path id="heart_icon" class="cls-1" d="M1484.78,49.589a6.683,6.683,0,0,0-4.17-4.371c-1.71-.595-3.75,0-5.58,1.611-1.83-1.569-3.88-2.122-5.58-1.569a6.884,6.884,0,0,0-4.17,4.371c-0.47,1.57-.51,4.117,1.95,7.215,1.11,1.4,2.82,3.4,4.22,4.965,2.68,3.014,3.11,3.183,3.49,3.183h0.17c0.39,0,.77-0.168,3.45-3.224,1.41-1.613,3.11-3.609,4.22-4.966C1485.25,53.706,1485.25,51.159,1484.78,49.589Zm-3.28,6.2c-1.96,2.462-5.32,6.324-6.47,7.385-1.15-1.061-4.52-4.924-6.48-7.385-1.61-1.994-2.21-3.947-1.7-5.687a4.986,4.986,0,0,1,3.11-3.225c1.23-.467,2.9.169,4.43,1.655a0.84,0.84,0,0,0,1.06.126,0.447,0.447,0,0,0,.22-0.17c1.53-1.443,3.19-2.079,4.42-1.655a5.168,5.168,0,0,1,3.11,3.268C1483.71,51.8,1483.12,53.79,1481.5,55.784Z" transform="translate(-1465.03 -45)"/>
</svg>
