<svg 
 xmlns="http://www.w3.org/2000/svg"
 xmlns:xlink="http://www.w3.org/1999/xlink"
 width="21px" height="20px">
<path fill-rule="evenodd"  fill="rgb(41, 40, 45)"
 d="M19.892,18.697 L14.082,12.887 C15.184,11.526 15.847,9.796 15.847,7.914 C15.847,3.548 12.296,-0.003 7.931,-0.003 C3.565,-0.003 0.014,3.548 0.014,7.914 C0.014,12.279 3.565,15.830 7.931,15.830 C9.814,15.830 11.543,15.167 12.904,14.065 L18.714,19.875 C18.876,20.038 19.140,20.038 19.303,19.875 L19.892,19.286 C20.055,19.123 20.055,18.859 19.892,18.697 ZM7.931,14.163 C4.484,14.163 1.681,11.360 1.681,7.914 C1.681,4.467 4.484,1.663 7.931,1.663 C11.377,1.663 14.181,4.467 14.181,7.914 C14.181,11.360 11.377,14.163 7.931,14.163 Z"/>
</svg>                                                                                   
                                                                                                    
                                                                                                    
                                                                                                    
                                                                                                    
                                                                                                    
                                                                                                    
                                                                                                    
                                                                                                    
                                                                                                    
                                                                                                    
                                                                                                    
                                                                                                    
                                                                                                    
                                                                                                    
                                                                                                    
                                                                                                    
                           
<?xpacket end="w"?></metadata>
<defs>
    <style>
      .cls-1 {
        fill: #29282d;
        fill-rule: evenodd;
      }
    </style>
  </defs>
  <path id="search" class="cls-1" d="M1439.89,63.7l-5.81-5.81a7.944,7.944,0,1,0-1.18,1.178l5.81,5.81a0.417,0.417,0,0,0,.59,0l0.59-.589A0.421,0.421,0,0,0,1439.89,63.7Zm-11.96-4.533a6.25,6.25,0,1,1,6.25-6.25A6.254,6.254,0,0,1,1427.93,59.163Z" transform="translate(-1420 -45)"/>
</svg>
